<svg width="56" height="56" fill="none" xmlns="http://www.w3.org/2000/svg"><g clip-path="url('#clip0_137_9491')"><rect x="-28" y="14" width="34" height="28" rx="4" fill="#6A54FF"/><rect x="50" y="14" width="34" height="28" rx="4" fill="#6A54FF"/><rect x="8" y="12" width="40" height="32" rx="4" fill="#57E1FF"/><path d="m24.847 34.684 9.39-5.353c.706-.416 1.06-.623 1.192-.886a1 1 0 0 0 .002-.895c-.131-.264-.485-.475-1.194-.896l-9.39-5.354-.039-.021c-.722-.4-1.083-.6-1.378-.58a1 1 0 0 0-.769.453c-.161.249-.161.661-.161 1.487v10.707c0 .83 0 1.244.162 1.493a1 1 0 0 0 .771.452c.297.02.659-.183 1.382-.589l.032-.018Z" fill="#000"/></g><defs><clipPath id="clip0_137_9491"><path fill="#fff" d="M0 0h56v56H0z"/></clipPath></defs></svg>