<svg width="56" height="56" fill="none" xmlns="http://www.w3.org/2000/svg"><path fill-rule="evenodd" clip-rule="evenodd" d="M14.852 13.438c-1.208-1.208-1.173-3.198.232-4.169A22.625 22.625 0 0 1 23.89 5.62c1.68-.306 3.11 1.076 3.11 2.784v9.94c0 2.672-3.23 4.01-5.12 2.12l-7.027-7.026Zm-2.874-1.59a26.72 26.72 0 0 0-.13.13l.13-.13Zm1.46 3.004c-1.208-1.208-3.198-1.173-4.169.232A22.624 22.624 0 0 0 5.62 23.89C5.314 25.57 6.696 27 8.404 27h9.939c2.673 0 4.011-3.23 2.121-5.12l-7.026-7.027ZM5.25 28v-.11.22V28Zm8.188 13.148c-1.208 1.208-3.198 1.173-4.169-.232A22.625 22.625 0 0 1 5.62 32.11C5.314 30.43 6.696 29 8.404 29h9.939c2.673 0 4.011 3.231 2.121 5.121l-7.026 7.027Zm-1.59 2.873.13.13-.13-.13Zm3.004-1.459c-1.208 1.208-1.173 3.198.232 4.169a22.626 22.626 0 0 0 8.805 3.648c1.68.307 3.11-1.075 3.11-2.783v-9.94c0-2.672-3.23-4.01-5.12-2.12l-7.027 7.026ZM35.535 21.88c-1.89 1.89-.551 5.12 2.122 5.12h9.939c1.707 0 3.09-1.43 2.783-3.11a22.623 22.623 0 0 0-3.648-8.805c-.971-1.405-2.961-1.44-4.169-.232l-7.027 7.027Zm5.613-8.441c1.208-1.208 1.173-3.198-.233-4.169a22.625 22.625 0 0 0-8.804-3.649C30.43 5.314 29 6.696 29 8.404v9.94c0 2.672 3.231 4.01 5.121 2.12l7.027-7.026Zm5.582 27.478c-.97 1.405-2.96 1.44-4.168.232l-7.027-7.027c-1.89-1.89-.551-5.121 2.122-5.121h9.939c1.707 0 3.09 1.43 2.783 3.11a22.624 22.624 0 0 1-3.648 8.806Zm-12.609-5.38c-1.89-1.89-5.121-.552-5.121 2.12v9.94c0 1.708 1.43 3.09 3.11 2.784a22.626 22.626 0 0 0 8.805-3.65c1.406-.97 1.44-2.96.233-4.168l-7.027-7.026Z" fill="#6A54FF"/><circle cx="28" cy="5.25" r="3.75" fill="#57E1FF" stroke="#000"/><circle cx="28" cy="50.75" r="3.75" fill="#57E1FF" stroke="#000"/><circle cx="11.913" cy="11.914" r="3.75" transform="rotate(-45 11.913 11.914)" fill="#57E1FF" stroke="#000"/><circle cx="44.087" cy="44.087" r="3.75" transform="rotate(-45 44.087 44.087)" fill="#57E1FF" stroke="#000"/><circle cx="5.25" cy="28" r="3.75" transform="rotate(-90 5.25 28)" fill="#57E1FF" stroke="#000"/><circle cx="50.75" cy="28" r="3.75" transform="rotate(-90 50.75 28)" fill="#57E1FF" stroke="#000"/><circle cx="11.913" cy="44.087" r="3.75" transform="rotate(-135 11.913 44.087)" fill="#57E1FF" stroke="#000"/><circle cx="44.087" cy="11.914" r="3.75" transform="rotate(-135 44.087 11.914)" fill="#57E1FF" stroke="#000"/></svg>